# xmcd
# Copyright (C) 1995-1998 Ti Kan
#
# Track frame offsets:
#       150
#       2139
#       16355
#       33870
#       51114
#       69042
#       85484
#       101328
#       116022
#       136004
#       153463
#       170296
#       184711
#       200494
#       215403
#
# Disc length: 3313 seconds
#
# Revision: 2
# Processed by: cddbd v1.5.1PL2 Copyright (c) Steve Scherf et al.
# Submitted via: CD-Transfer v1.0
#
DISCID=ba0cef0f
DTITLE=Churchhill - Kennsch?!
DYEAR=2006
DGENRE=
TTITLE0=Intro
TTITLE1=Kennsch
TTITLE2=Händ Id Luft
TTITLE3=Schön
TTITLE4=Chartbreaker
TTITLE5=Schpiler
TTITLE6=Fänschter
TTITLE7=Kids
TTITLE8=Gift
TTITLE9=Passion Of Raiser
TTITLE10=Vergisse Das Jtz
TTITLE11=Dänksch
TTITLE12=Morn
TTITLE13=Luscht(Los)
TTITLE14=Merci
EXTD=
EXTT0=
EXTT1=
EXTT2=
EXTT3=
EXTT4=
EXTT5=
EXTT6=
EXTT7=
EXTT8=
EXTT9=
EXTT10=
EXTT11=
EXTT12=
EXTT13=
EXTT14=
PLAYORDER=
